<svg width="27" height="33" viewBox="0 0 27 33" fill="none" xmlns="http://www.w3.org/2000/svg">
<path d="M19.2178 2.75026H18.9697C18.3704 1.14961 16.7567 0 14.8645 0H11.9623C10.07 0 8.45636 1.14961 7.85705 2.75026H7.60891C3.60819 2.75026 0.353333 5.83468 0.353333 9.62591V26.1275C0.353333 29.9187 3.60819 33.0031 7.60891 33.0031H19.2178C23.2186 33.0031 26.4734 29.9187 26.4734 26.1275V9.62591C26.4734 5.83468 23.2186 2.75026 19.2178 2.75026ZM6.1578 24.7523C5.35678 24.7523 4.70668 24.1363 4.70668 23.3772C4.70668 22.6181 5.35678 22.0021 6.1578 22.0021C6.95881 22.0021 7.60891 22.6181 7.60891 23.3772C7.60891 24.1363 6.95881 24.7523 6.1578 24.7523ZM20.669 24.7523H11.9623C11.1612 24.7523 10.5111 24.1363 10.5111 23.3772C10.5111 22.6181 11.1612 22.0021 11.9623 22.0021H20.669C21.47 22.0021 22.1201 22.6181 22.1201 23.3772C22.1201 24.1363 21.47 24.7523 20.669 24.7523ZM6.1578 19.2518C5.35678 19.2518 4.70668 18.6358 4.70668 17.8767C4.70668 17.1176 5.35678 16.5016 6.1578 16.5016C6.95881 16.5016 7.60891 17.1176 7.60891 17.8767C7.60891 18.6358 6.95881 19.2518 6.1578 19.2518ZM20.669 19.2518H11.9623C11.1612 19.2518 10.5111 18.6358 10.5111 17.8767C10.5111 17.1176 11.1612 16.5016 11.9623 16.5016H20.669C21.47 16.5016 22.1201 17.1176 22.1201 17.8767C22.1201 18.6358 21.47 19.2518 20.669 19.2518ZM6.1578 13.7513C5.35678 13.7513 4.70668 13.1352 4.70668 12.3762C4.70668 11.6171 5.35678 11.001 6.1578 11.001C6.95881 11.001 7.60891 11.6171 7.60891 12.3762C7.60891 13.1352 6.95881 13.7513 6.1578 13.7513ZM20.669 13.7513H11.9623C11.1612 13.7513 10.5111 13.1352 10.5111 12.3762C10.5111 11.6171 11.1612 11.001 11.9623 11.001H20.669C21.47 11.001 22.1201 11.6171 22.1201 12.3762C22.1201 13.1352 21.47 13.7513 20.669 13.7513Z" fill="#4F4F4F"/>
</svg>
